# xmcd
#
# Track frame offsets:
#	150
#	18172
#	37142
#	65114
#
# Disc length: 1200 seconds
# Revision: 0
# Processed by: cddbd v1.5.2PL0 Copyright (c) Steve Scherf et al.
# Submitted via: dBpowerAMP V12.0
#
DISCID=3204ae04
DTITLE=Keith Urban - You're My Better Half
DYEAR=2005
DGENRE=Country
TTITLE0=You're My Better Half (Edit)
TTITLE1=You're My Better Half (Album Version)
TTITLE2=Days Go By (Acoustic Version)
TTITLE3=DATA
EXTD=
EXTT0=
EXTT1=
EXTT2=
EXTT3=
PLAYORDER=
